<svg width="153" height="56" viewBox="0 0 153 56" fill="none" xmlns="http://www.w3.org/2000/svg">
<g clip-path="url(#clip0_3364_2362)">
<path d="M44.7741 15.2205C42.9534 22.1048 41.0693 28.0005 36.495 28.0005C35.3989 28.0005 28.7413 47.7193 24.1307 50.8032C19.1035 54.1683 16.1234 40.835 15.7701 38.4858C15.1813 34.6309 17.2103 28.0005 22.6542 14.2046C24.176 7.31117 28.2884 0.916616 36.1508 0.42682C41.0874 0.11843 46.5857 8.39961 44.7741 15.2205Z" fill="white"/>
<path d="M22.4714 50.8024C22.4714 50.8024 20.841 46.1312 20.6598 42.494C20.4787 38.8568 21.4479 36.6709 21.4479 36.6709C21.4479 36.6709 22.5982 40.0088 26.8918 43.2197C31.1944 46.4305 30.9498 44.553 31.131 44.1902C31.3121 43.8274 31.0675 41.7049 30.1617 39.4011C29.2559 37.0972 28.5313 35.8274 28.2867 31.1562C28.0421 26.485 30.4063 23.2197 31.4933 21.0972C32.1817 19.7548 31.7197 17.6142 31.2849 16.2265C31.1581 15.909 31.0313 15.5643 30.9226 15.1834C30.8411 14.9748 30.7867 14.8568 30.7867 14.8568C30.7867 14.8568 30.8049 14.8841 30.8502 14.9294C30.7867 14.6845 30.7233 14.4396 30.669 14.1766C31.919 15.4464 36.2759 18.621 39.3647 18.3126C42.4535 18.0042 42.8068 12.1992 42.8068 12.1992C43.6583 13.5779 43.0604 16.1085 42.9065 16.7072C43.0604 16.5893 43.2869 16.4079 43.6583 16.1448C45.2344 14.9929 46.0315 11.782 46.0315 11.782C45.8413 9.42374 45.1981 7.96342 44.6003 7.07453C44.1112 8.4895 43.0242 10.1131 42.2633 10.3308C40.6691 10.7934 36.7107 8.27181 37.3629 6.81149C37.5984 6.28542 38.2868 5.84097 39.1474 5.50537C37.7252 5.75027 36.7198 5.48723 35.2977 5.75027C34.564 5.94075 34.1382 5.93167 32.8339 6.62102C31.2396 7.47363 31.0223 7.89086 30.4516 8.41694C28.4588 10.2763 26.1309 13.0065 25.5331 14.0859C24.3646 16.2083 23.2142 18.5575 27.8157 19.2378C26.7287 20.3625 23.5856 18.875 23.5856 18.875C23.5856 18.875 19.2468 26.1312 18.5131 34.8931C17.7793 43.655 21.5022 49.85 22.4714 50.8206V50.8024Z" fill="#897363"/>
<path d="M44.3831 4.91562C43.4049 4.5528 40.9048 4.7977 39.1476 5.48704C38.287 5.82264 37.5986 6.26709 37.3631 6.79317C36.72 8.24441 40.6693 10.775 42.2635 10.3124C43.0244 10.0948 44.1114 8.47117 44.6005 7.0562C44.9447 6.0494 44.99 5.14237 44.3831 4.91562Z" fill="#372823"/>
<path d="M35.4179 5.7137C34.965 5.65928 34.032 5.53229 33.7331 5.18762C33.0628 4.43478 31.994 4.22617 31.224 4.3985C30.3997 4.57991 29.965 5.54136 30.5266 6.72957C30.7802 7.26472 30.7168 7.90871 30.4541 8.3985C31.2603 7.64567 32.0211 7.02889 32.5827 6.72957C33.6878 6.14907 34.6661 5.84068 35.4179 5.70463V5.7137Z" fill="#372823"/>
<path d="M46.0325 14.3773C46.1955 13.1165 46.0778 12.1732 46.0325 11.9465C46.0325 11.9102 46.0325 11.8921 46.0325 11.8921C46.0325 11.8921 46.0325 11.9646 46.0144 12.0825L46.0325 11.7741C46.0325 11.7741 45.2354 14.985 43.6593 16.137C43.297 16.4091 43.0614 16.5814 42.9075 16.6993C43.0705 16.1007 43.6593 13.5791 42.8078 12.1914C42.8078 12.1914 42.4546 17.9964 39.3658 18.3048C36.2769 18.6131 31.911 15.4476 30.67 14.1687C30.7243 14.4317 30.7878 14.6857 30.8512 14.9215C30.8149 14.8762 30.7878 14.849 30.7878 14.849C30.7878 14.849 30.8421 14.9669 30.9236 15.1755C31.0323 15.5565 31.1591 15.9011 31.2859 16.2186C31.7207 17.6154 32.1827 19.7469 31.4943 21.0893C30.4073 23.2118 28.0432 26.4862 28.2877 31.1483C28.5323 35.8195 29.2569 37.0893 30.1627 39.3932C31.0686 41.697 31.3131 43.8195 31.132 44.1823C30.9508 44.5451 31.1954 46.4227 26.8928 43.2118C22.5902 40.0009 21.4489 36.663 21.4489 36.663C21.4489 36.663 20.4797 38.849 20.6608 42.4862C20.842 46.1233 22.4724 50.7945 22.4724 50.7945C22.4724 50.7945 16.8383 46.2322 16.5394 37.0984C16.2586 28.6902 21.1771 18.985 21.9652 17.4794C22.2913 18.1778 22.8348 18.6404 23.5956 18.849C23.5956 18.849 21.4036 17.6426 23.0159 12.9623C24.6192 8.28208 27.8348 4.11881 31.0867 2.27754C34.3476 0.436271 37.0922 0.517904 40.1176 1.81496C40.1176 1.81496 36.1592 -1.90386 30.9146 1.27074C27.8982 3.09387 25.8873 5.12561 24.5105 7.20271C23.3511 7.41133 21.938 7.22085 21.3674 7.22085C20.6427 7.22085 19.5286 7.71065 20.0358 9.48843C20.525 11.2299 21.8927 12.9896 21.784 13.9692C21.6572 14.6676 21.6029 15.2934 21.63 15.8467C20.9326 16.9533 17.6898 22.2413 16.7024 26.4499C16.7024 26.4499 18.5594 7.87391 12.8709 4.69024C7.15523 1.52471 2.57184 4.07346 1.04103 8.25487C-2.22894 17.1982 2.61713 31.1664 9.45598 42.4408C16.2948 53.7152 22.7804 55.756 27.3729 55.9555C35.0632 56.2911 32.8168 54.6222 35.6067 54.4408C38.3875 54.2594 37.9708 55.9555 42.5723 55.2934C45.9329 54.8036 46.5035 52.5633 45.2354 51.5383C43.9673 50.5043 44.3839 48.0825 45.5977 42.8671C46.8115 37.6517 45.0723 28.4726 43.8586 26.1143C42.6448 23.7469 42.7716 22.5496 44.0578 20.2186C45.326 17.9329 45.7517 16.4816 46.0234 14.3864L46.0325 14.3773ZM43.6231 17.18C43.6231 17.18 42.8169 19.9283 42.2553 21.18C41.7571 22.2866 41.6031 22.1959 41.2408 22.3229C41.3766 21.9782 41.4763 21.5338 41.6484 20.7719C41.8658 19.8558 41.6484 19.6199 41.6484 19.6199C41.3676 20.9805 40.9328 21.9601 40.5614 22.595C40.0813 22.7583 39.4926 22.858 39.0668 22.6857C38.4599 22.4408 38.3603 19.5927 38.3603 19.4295C40.9962 19.6109 42.4002 18.5406 43.6321 17.1619L43.6231 17.18Z" fill="#372823"/>
<path d="M68.1238 13.0696H59.582V42.8746H68.1238C70.805 42.8746 72.988 40.6887 72.988 38.0039V17.9313C72.988 15.2465 70.805 13.0605 68.1238 13.0605V13.0696ZM67.1093 39.2918H63.6038V16.6524H67.1093C68.3412 16.6524 68.9662 17.5594 68.9662 18.9562V36.9971C68.9662 38.4211 68.4227 39.3009 67.1093 39.3009V39.2918Z" fill="#CF3D16"/>
<path d="M87.4653 26.2041C87.9816 25.4059 88.2714 24.4898 88.2714 23.5465V17.9411C88.2714 15.2653 86.1609 13.1247 83.4525 13.0703H75.8438C75.8438 13.0703 75.8438 14.1406 75.8438 17.0159C75.8528 23.7642 75.8438 42.8844 75.8438 42.8844H84.5304C85.2098 42.8844 86.0522 42.5397 86.0522 42.5397C87.8819 41.7959 89.1229 40.0272 89.1229 38.0136V29.6599C89.1229 28.39 88.5069 27.1383 87.4743 26.2041H87.4653ZM84.2406 22.5306C84.2406 24.1179 83.6699 24.8345 82.3837 24.8345H79.8474V16.6621H82.3837C83.5341 16.6621 84.2406 17.6145 84.2406 18.966V22.5397V22.5306ZM79.8565 28.4082H82.9996C84.1772 28.4082 85.092 29.2336 85.092 30.6667V36.9887C85.092 38.3674 84.304 39.2925 83.2351 39.2925H79.8565V28.4082Z" fill="#382923"/>
<path d="M99.167 20.7349H94.6832C92.6905 20.7349 91.0781 22.3766 91.0781 24.3902V39.2655C91.0781 41.2609 92.6995 42.8755 94.6832 42.8755H102.817C102.817 42.8755 102.817 39.3018 100.127 39.2927C98.5963 39.2927 95.1543 39.2927 95.1543 39.2927C95.1271 39.2927 95.0999 39.2836 95.0727 39.2745L95.0546 39.2655V33.5693H102.817V24.3993C102.817 22.3857 101.178 20.7439 99.167 20.7439V20.7349ZM98.7956 24.3902V29.9775H95.0546V24.3902C95.0546 24.3902 95.0637 24.3448 95.0727 24.3358C95.0999 24.3358 95.1271 24.3176 95.1271 24.3176H98.7322C98.7322 24.3176 98.7684 24.3358 98.7865 24.3267C98.7865 24.3267 98.7956 24.3539 98.7956 24.3902Z" fill="#382923"/>
<path d="M112.827 20.7342H108.126C105.372 20.7342 105.336 24.3169 105.336 24.3169H112.392C112.392 24.3169 112.429 24.3351 112.447 24.326C112.447 24.326 112.456 24.3532 112.456 24.3895V27.8725H108.343C106.351 27.8725 104.738 29.4961 104.738 31.4825V39.2557C104.738 41.2512 106.36 42.8657 108.343 42.8657H116.478V24.3804C116.478 22.3668 114.838 20.7251 112.827 20.7251V20.7342ZM112.447 31.4553V39.292H108.814C108.814 39.292 108.76 39.2829 108.733 39.2738L108.715 39.2648V31.5006C108.715 31.5006 108.724 31.4825 108.733 31.4734C108.76 31.4734 108.787 31.4553 108.787 31.4553H112.456H112.447Z" fill="#382923"/>
<path d="M123.261 34.041L120.77 20.7349H116.902L121.015 42.8755H125.417L129.52 20.7349H125.779L123.261 34.041Z" fill="#382923"/>
<path d="M151.052 20.7342C150.889 20.7342 150.617 20.7342 150.3 20.7342C149.141 20.7251 148.144 20.716 147.673 20.7432C145.644 20.9246 144.168 22.4575 144.168 24.3895V42.8748H148.154C148.154 42.8748 148.208 30.6934 148.154 25.614C148.144 24.2807 148.135 24.2988 149.141 24.2716C150.047 24.2444 150.418 24.2172 150.844 24.2172C153 24.199 153 20.7342 153 20.7342H151.052Z" fill="#382923"/>
<path d="M108.707 38.1687V39.2934H109.83C109.205 39.2934 108.707 38.7855 108.707 38.1687Z" fill="#382923"/>
<path d="M95.0469 38.1687V39.2934H96.1701C95.5451 39.2934 95.0469 38.7855 95.0469 38.1687Z" fill="#382923"/>
<path d="M109.838 31.4368H108.715V32.5615C108.715 31.9356 109.222 31.4368 109.838 31.4368Z" fill="#382923"/>
<path d="M96.1779 24.3081H95.0547V25.4328C95.0547 24.807 95.5619 24.3081 96.1779 24.3081Z" fill="#382923"/>
<path d="M98.7951 25.4328V24.3081H97.6719C98.2969 24.3081 98.7951 24.816 98.7951 25.4328Z" fill="#382923"/>
<path d="M112.455 25.4328V24.3081H111.332C111.957 24.3081 112.455 24.816 112.455 25.4328Z" fill="#382923"/>
<path d="M138.507 20.7349H134.023C132.03 20.7349 130.418 22.3766 130.418 24.3902V39.2655C130.418 41.2609 132.039 42.8755 134.023 42.8755H142.157C142.157 42.8755 142.157 39.3018 139.467 39.2927C137.936 39.2927 134.494 39.2927 134.494 39.2927C134.467 39.2927 134.44 39.2836 134.413 39.2745L134.394 39.2655V33.5693H142.157V24.3993C142.157 22.3857 140.518 20.7439 138.507 20.7439V20.7349ZM138.135 24.3902V29.9775H134.394V24.3902C134.394 24.3902 134.404 24.3448 134.413 24.3358C134.44 24.3358 134.467 24.3176 134.467 24.3176H138.072C138.072 24.3176 138.108 24.3358 138.126 24.3267C138.126 24.3267 138.135 24.3539 138.135 24.3902Z" fill="#382923"/>
<path d="M134.387 38.1687V39.2934H135.51C134.885 39.2934 134.387 38.7855 134.387 38.1687Z" fill="#382923"/>
<path d="M135.518 24.3081H134.395V25.4328C134.395 24.807 134.902 24.3081 135.518 24.3081Z" fill="#382923"/>
<path d="M148.76 24.2729H147.637V25.3977C147.637 24.7718 148.144 24.2729 148.76 24.2729Z" fill="#382923"/>
<path d="M138.135 25.4328V24.3081H137.012C137.637 24.3081 138.135 24.816 138.135 25.4328Z" fill="#382923"/>
</g>
<defs>
<clipPath id="clip0_3364_2362">
<rect width="153" height="56" fill="white"/>
</clipPath>
</defs>
</svg>
